<?xml version="1.0" standalone="no"?>
<!DOCTYPE svg PUBLIC "-//W3C//DTD SVG 20010904//EN"
 "http://www.w3.org/TR/2001/REC-SVG-20010904/DTD/svg10.dtd">
<svg version="1.0" xmlns="http://www.w3.org/2000/svg"
 width="1080.000000pt" height="1080.000000pt" viewBox="0 0 1080.000000 1080.000000"
 preserveAspectRatio="xMidYMid meet">
<metadata>
Created by potrace 1.14, written by Peter Selinger 2001-2017
</metadata>
<g transform="translate(0.000000,1080.000000) scale(0.100000,-0.100000)"
fill="#000000" stroke="none">
<path d="M0 5400 l0 -5400 5400 0 5400 0 0 5400 0 5400 -5400 0 -5400 0 0
-5400z m9150 2100 l0 -450 -575 0 -575 0 0 -270 0 -270 -63 0 c-84 0 -270 -24
-391 -50 -370 -81 -678 -274 -873 -548 -103 -143 -207 -393 -248 -592 -50
-239 -49 -207 -52 -1373 l-4 -1097 -419 0 -420 0 0 2100 0 2100 -130 0 -130 0
0 -2100 0 -2100 -420 0 -419 0 -4 1097 c-3 1166 -2 1134 -52 1373 -41 199
-145 449 -248 592 -195 274 -503 467 -873 548 -121 26 -307 50 -391 50 l-63 0
0 270 0 270 -575 0 -575 0 0 450 0 450 3750 0 3750 0 0 -450z"/>
<path d="M3820 7046 c0 -2 24 -22 52 -43 203 -148 381 -365 503 -613 l55 -113
0 387 0 386 -305 0 c-168 0 -305 -2 -305 -4z"/>
<path d="M6370 6664 l0 -387 55 113 c122 248 321 489 513 622 23 16 42 31 42
33 0 3 -137 5 -305 5 l-305 0 0 -386z"/>
</g>
</svg>
